# xmcd CD database file
#
# Track frame offsets:
#	150
#	22344
#	35280
#	50563
#	65777
#	80428
#	92352
#	108177
#	132298
#	148640
#	167836
#	182844
#	203085
#	223652
#	234966
#	243518
#	263008
#	277095
#	292756
#
# Disc length: 4122 seconds
#
# Revision: 0
# Processed by: cddbd v1.5.2PL0 Copyright (c) Steve Scherf et al.
# Submitted via: CDex 1.51
#
DISCID=15101813
DTITLE=Michel polnareff - Triple best of 2
DYEAR=2009
DGENRE=Français
TTITLE0=Je suis un homme
TTITLE1=Voyage
TTITLE2=Né dans un Ice Cream
TTITLE3=Petite, petite
TTITLE4=Nos mots d'amour
TTITLE5=Qui a tué grand' maman ?
TTITLE6=Monsieur l'abbé
TTITLE7=Hey You Woman
TTITLE8=À minuit, à midi
TTITLE9=Comme Juliette et Roméo
TTITLE10=Holidays
TTITLE11=La mouche
TTITLE12=On ira tous au paradis
TTITLE13=Tibili
TTITLE14=Rosy
TTITLE15=I Love You Because
TTITLE16=L'homme qui pleurait des larmes de verre
TTITLE17=Le prince en otage
TTITLE18=Le file qui rêve de moi
EXTD=YEAR: 2009
EXTT0=
EXTT1=
EXTT2=
EXTT3=
EXTT4=
EXTT5=
EXTT6=
EXTT7=
EXTT8=
EXTT9=
EXTT10=
EXTT11=
EXTT12=
EXTT13=
EXTT14=
EXTT15=
EXTT16=
EXTT17=
EXTT18=
PLAYORDER=
